<svg width="41" height="41" viewBox="0 0 41 41" fill="none" xmlns="http://www.w3.org/2000/svg">
<path fill-rule="evenodd" clip-rule="evenodd" d="M0.5 20.82C0.502057 24.7752 1.67678 28.6409 3.87566 31.9285C6.07454 35.2162 9.19883 37.778 12.8535 39.2901C16.5082 40.8023 20.5292 41.1969 24.4082 40.424C28.2871 39.6511 31.8498 37.7455 34.6458 34.948C37.4418 32.1506 39.3456 28.5869 40.1165 24.7075C40.8873 20.8282 40.4906 16.8074 38.9766 13.1535C37.4625 9.49958 34.8991 6.37663 31.6103 4.17946C28.3216 1.98229 24.4552 0.809571 20.5 0.80957C15.1944 0.811267 10.1067 2.92038 6.35606 6.67299C2.6054 10.4256 0.498939 15.5144 0.5 20.82V20.82ZM15.4992 12.4824H12.1664V29.156H15.4992V12.4824ZM18.832 12.4824H28.832V15.8168H18.832V12.4824ZM28.832 19.1512H18.832V22.4856H28.832V19.1512ZM18.832 25.8232H28.832V29.156H18.832V25.8232Z" fill="#92003B"/>
</svg>
