<svg width="111" height="25" viewBox="0 0 111 25" fill="none" xmlns="http://www.w3.org/2000/svg">
<path fill-rule="evenodd" clip-rule="evenodd" d="M2.40394e-07 12.3161C0.00123426 14.6892 0.706071 17.0086 2.0254 18.9812C3.34472 20.9538 5.2193 22.4909 7.41212 23.3982C9.60494 24.3055 12.0175 24.5422 14.3449 24.0785C16.6723 23.6147 18.8099 22.4714 20.4875 20.7929C22.1651 19.1144 23.3074 16.9762 23.7699 14.6486C24.2324 12.321 23.9944 9.90852 23.086 7.71617C22.1775 5.52382 20.6394 3.65005 18.6662 2.33175C16.6929 1.01345 14.3731 0.309815 12 0.309814C8.81663 0.310833 5.76403 1.5763 3.51364 3.82786C1.26324 6.07943 -0.000636392 9.13269 2.40394e-07 12.3161ZM8.99952 7.31349H6.99984V17.3176H8.99952V7.31349ZM10.9992 7.31349H16.9992V9.31413H10.9992V7.31349ZM16.9992 11.3148H10.9992V13.3154H16.9992V11.3148ZM10.9992 15.318H16.9992V17.3176H10.9992V15.318Z" fill="#92003B"/>
<path d="M32.21 11.1748H37.43V12.7798H32.21V11.1748ZM32.36 15.6748H38.285V17.3098H30.41V6.80981H38.075V8.44481H32.36V15.6748ZM40.2788 17.3098V6.17981H42.1538V17.3098H40.2788ZM48.3798 17.4148C47.4898 17.4148 46.7098 17.2398 46.0398 16.8898C45.3798 16.5298 44.8648 16.0398 44.4948 15.4198C44.1348 14.7998 43.9548 14.0948 43.9548 13.3048C43.9548 12.5048 44.1298 11.7998 44.4798 11.1898C44.8398 10.5698 45.3298 10.0848 45.9498 9.73481C46.5798 9.38481 47.2948 9.20981 48.0948 9.20981C48.8748 9.20981 49.5698 9.37981 50.1798 9.71981C50.7898 10.0598 51.2698 10.5398 51.6198 11.1598C51.9698 11.7798 52.1448 12.5098 52.1448 13.3498C52.1448 13.4298 52.1398 13.5198 52.1298 13.6198C52.1298 13.7198 52.1248 13.8148 52.1148 13.9048H45.4398V12.6598H51.1248L50.3898 13.0498C50.3998 12.5898 50.3048 12.1848 50.1048 11.8348C49.9048 11.4848 49.6298 11.2098 49.2798 11.0098C48.9398 10.8098 48.5448 10.7098 48.0948 10.7098C47.6348 10.7098 47.2298 10.8098 46.8798 11.0098C46.5398 11.2098 46.2698 11.4898 46.0698 11.8498C45.8798 12.1998 45.7848 12.6148 45.7848 13.0948V13.3948C45.7848 13.8748 45.8948 14.2998 46.1148 14.6698C46.3348 15.0398 46.6448 15.3248 47.0448 15.5248C47.4448 15.7248 47.9048 15.8248 48.4248 15.8248C48.8748 15.8248 49.2798 15.7548 49.6398 15.6148C49.9998 15.4748 50.3198 15.2548 50.5998 14.9548L51.6048 16.1098C51.2448 16.5298 50.7898 16.8548 50.2398 17.0848C49.6998 17.3048 49.0798 17.4148 48.3798 17.4148ZM64.0558 9.20981C64.6958 9.20981 65.2608 9.33481 65.7508 9.58481C66.2508 9.83481 66.6408 10.2198 66.9208 10.7398C67.2008 11.2498 67.3408 11.9098 67.3408 12.7198V17.3098H65.4658V12.9598C65.4658 12.2498 65.3108 11.7198 65.0008 11.3698C64.6908 11.0198 64.2458 10.8448 63.6658 10.8448C63.2558 10.8448 62.8908 10.9348 62.5708 11.1148C62.2608 11.2948 62.0158 11.5598 61.8358 11.9098C61.6658 12.2598 61.5808 12.7048 61.5808 13.2448V17.3098H59.7058V12.9598C59.7058 12.2498 59.5508 11.7198 59.2408 11.3698C58.9308 11.0198 58.4858 10.8448 57.9058 10.8448C57.4958 10.8448 57.1308 10.9348 56.8108 11.1148C56.5008 11.2948 56.2558 11.5598 56.0758 11.9098C55.9058 12.2598 55.8208 12.7048 55.8208 13.2448V17.3098H53.9458V9.29981H55.7308V11.4298L55.4158 10.7998C55.6858 10.2798 56.0758 9.88481 56.5858 9.61481C57.1058 9.34481 57.6958 9.20981 58.3558 9.20981C59.1058 9.20981 59.7558 9.39481 60.3058 9.76481C60.8658 10.1348 61.2358 10.6948 61.4158 11.4448L60.6808 11.1898C60.9408 10.5898 61.3708 10.1098 61.9708 9.74981C62.5708 9.38981 63.2658 9.20981 64.0558 9.20981ZM73.5165 17.4148C72.6265 17.4148 71.8465 17.2398 71.1765 16.8898C70.5165 16.5298 70.0015 16.0398 69.6315 15.4198C69.2715 14.7998 69.0915 14.0948 69.0915 13.3048C69.0915 12.5048 69.2665 11.7998 69.6165 11.1898C69.9765 10.5698 70.4665 10.0848 71.0865 9.73481C71.7165 9.38481 72.4315 9.20981 73.2315 9.20981C74.0115 9.20981 74.7065 9.37981 75.3165 9.71981C75.9265 10.0598 76.4065 10.5398 76.7565 11.1598C77.1065 11.7798 77.2815 12.5098 77.2815 13.3498C77.2815 13.4298 77.2765 13.5198 77.2665 13.6198C77.2665 13.7198 77.2615 13.8148 77.2515 13.9048H70.5765V12.6598H76.2615L75.5265 13.0498C75.5365 12.5898 75.4415 12.1848 75.2415 11.8348C75.0415 11.4848 74.7665 11.2098 74.4165 11.0098C74.0765 10.8098 73.6815 10.7098 73.2315 10.7098C72.7715 10.7098 72.3665 10.8098 72.0165 11.0098C71.6765 11.2098 71.4065 11.4898 71.2065 11.8498C71.0165 12.1998 70.9215 12.6148 70.9215 13.0948V13.3948C70.9215 13.8748 71.0315 14.2998 71.2515 14.6698C71.4715 15.0398 71.7815 15.3248 72.1815 15.5248C72.5815 15.7248 73.0415 15.8248 73.5615 15.8248C74.0115 15.8248 74.4165 15.7548 74.7765 15.6148C75.1365 15.4748 75.4565 15.2548 75.7365 14.9548L76.7415 16.1098C76.3815 16.5298 75.9265 16.8548 75.3765 17.0848C74.8365 17.3048 74.2165 17.4148 73.5165 17.4148ZM83.6275 9.20981C84.2675 9.20981 84.8375 9.33481 85.3375 9.58481C85.8475 9.83481 86.2475 10.2198 86.5375 10.7398C86.8275 11.2498 86.9725 11.9098 86.9725 12.7198V17.3098H85.0975V12.9598C85.0975 12.2498 84.9275 11.7198 84.5875 11.3698C84.2575 11.0198 83.7925 10.8448 83.1925 10.8448C82.7525 10.8448 82.3625 10.9348 82.0225 11.1148C81.6825 11.2948 81.4175 11.5648 81.2275 11.9248C81.0475 12.2748 80.9575 12.7198 80.9575 13.2598V17.3098H79.0825V9.29981H80.8675V11.4598L80.5525 10.7998C80.8325 10.2898 81.2375 9.89981 81.7675 9.62981C82.3075 9.34981 82.9275 9.20981 83.6275 9.20981ZM92.3661 17.4148C91.4861 17.4148 90.8061 17.1898 90.3261 16.7398C89.8461 16.2798 89.6061 15.6048 89.6061 14.7148V7.52981H91.4811V14.6698C91.4811 15.0498 91.5761 15.3448 91.7661 15.5548C91.9661 15.7648 92.2411 15.8698 92.5911 15.8698C93.0111 15.8698 93.3611 15.7598 93.6411 15.5398L94.1661 16.8748C93.9461 17.0548 93.6761 17.1898 93.3561 17.2798C93.0361 17.3698 92.7061 17.4148 92.3661 17.4148ZM88.2861 10.8598V9.35981H93.6261V10.8598H88.2861ZM99.0448 17.4148C98.2248 17.4148 97.4948 17.2398 96.8548 16.8898C96.2148 16.5298 95.7098 16.0398 95.3398 15.4198C94.9698 14.7998 94.7848 14.0948 94.7848 13.3048C94.7848 12.5048 94.9698 11.7998 95.3398 11.1898C95.7098 10.5698 96.2148 10.0848 96.8548 9.73481C97.4948 9.38481 98.2248 9.20981 99.0448 9.20981C99.8748 9.20981 100.61 9.38481 101.25 9.73481C101.9 10.0848 102.405 10.5648 102.765 11.1748C103.135 11.7848 103.32 12.4948 103.32 13.3048C103.32 14.0948 103.135 14.7998 102.765 15.4198C102.405 16.0398 101.9 16.5298 101.25 16.8898C100.61 17.2398 99.8748 17.4148 99.0448 17.4148ZM99.0448 15.8098C99.5048 15.8098 99.9148 15.7098 100.275 15.5098C100.635 15.3098 100.915 15.0198 101.115 14.6398C101.325 14.2598 101.43 13.8148 101.43 13.3048C101.43 12.7848 101.325 12.3398 101.115 11.9698C100.915 11.5898 100.635 11.2998 100.275 11.0998C99.9148 10.8998 99.5098 10.7998 99.0598 10.7998C98.5998 10.7998 98.1898 10.8998 97.8298 11.0998C97.4798 11.2998 97.1998 11.5898 96.9898 11.9698C96.7798 12.3398 96.6748 12.7848 96.6748 13.3048C96.6748 13.8148 96.7798 14.2598 96.9898 14.6398C97.1998 15.0198 97.4798 15.3098 97.8298 15.5098C98.1898 15.7098 98.5948 15.8098 99.0448 15.8098ZM105.113 17.3098V9.29981H106.898V11.5048L106.688 10.8598C106.928 10.3198 107.303 9.90981 107.813 9.62981C108.333 9.34981 108.978 9.20981 109.748 9.20981V10.9948C109.668 10.9748 109.593 10.9648 109.523 10.9648C109.453 10.9548 109.383 10.9498 109.313 10.9498C108.603 10.9498 108.038 11.1598 107.618 11.5798C107.198 11.9898 106.988 12.6048 106.988 13.4248V17.3098H105.113Z" fill="#2C2C2C"/>
</svg>
