<svg width="116" height="25" viewBox="0 0 116 25" fill="none" xmlns="http://www.w3.org/2000/svg">
<circle cx="12" cy="12.3098" r="12" fill="#0473AB"/>
<path fill-rule="evenodd" clip-rule="evenodd" d="M15.1017 14.6998L14.4684 16.8057C14.4684 16.8057 13.5362 16.3553 12.8008 16.2989C12.3079 16.2611 11.6652 16.3893 11.2104 16.4801C10.9474 16.5325 10.7473 16.5724 10.6754 16.5605C10.4302 16.5196 10.2632 16.4044 10.0869 16.2008C9.92983 16.0194 9.80897 15.7103 9.82531 15.6449C9.83229 15.617 9.86229 15.612 9.93109 15.6005C10.0635 15.5784 10.3395 15.5323 10.8716 15.2526C11.2481 15.0547 11.7872 14.6313 11.7872 14.6313C11.7872 14.6313 11.5855 14.7411 11.382 14.8398C10.8798 15.0934 10.3122 15.2363 9.71117 15.2363C7.66155 15.2363 6 13.5748 6 11.5251C6 9.47551 7.66155 7.81396 9.71117 7.81396C10.7069 7.81396 11.611 8.20608 12.2775 8.84431L12.2776 8.84385C12.2776 8.84385 12.2799 8.8462 12.2841 8.85065C12.4 8.96215 12.5086 9.08111 12.6093 9.20675C12.683 9.29081 12.757 9.37823 12.8171 9.45551C13.0556 9.76179 13.3474 9.91959 13.6346 10.021C14.3029 10.2569 15.4493 9.98826 15.4493 9.98826C15.4493 9.98826 14.8837 9.98935 14.5337 9.90652C14.2646 9.8428 13.8634 9.66129 13.8634 9.66129C14.4535 9.45544 14.8709 9.41086 15.4538 9.4502C15.5467 9.45317 15.6385 9.46096 15.7287 9.47333C15.7551 9.47591 15.7818 9.47862 15.809 9.48145L15.8084 9.4855C17.0525 9.69503 18.0002 10.7773 18.0002 12.081C18.0002 13.5347 16.8218 14.7131 15.3681 14.7131C15.2782 14.7131 15.1893 14.7086 15.1017 14.6998Z" fill="white"/>
<path d="M32.885 17.3098L29.405 6.80981H31.43L34.535 16.3048H33.53L36.755 6.80981H38.555L41.69 16.3048H40.715L43.895 6.80981H45.755L42.275 17.3098H40.205L37.34 8.74481H37.88L34.97 17.3098H32.885ZM47.3436 17.3098V6.80981H51.6636C52.5936 6.80981 53.3886 6.95981 54.0486 7.25981C54.7186 7.55981 55.2336 7.98981 55.5936 8.54981C55.9536 9.10981 56.1336 9.77481 56.1336 10.5448C56.1336 11.3148 55.9536 11.9798 55.5936 12.5398C55.2336 13.0998 54.7186 13.5298 54.0486 13.8298C53.3886 14.1298 52.5936 14.2798 51.6636 14.2798H48.4236L49.2936 13.3648V17.3098H47.3436ZM49.2936 13.5748L48.4236 12.6298H51.5736C52.4336 12.6298 53.0786 12.4498 53.5086 12.0898C53.9486 11.7198 54.1686 11.2048 54.1686 10.5448C54.1686 9.87481 53.9486 9.35981 53.5086 8.99981C53.0786 8.63981 52.4336 8.45981 51.5736 8.45981H48.4236L49.2936 7.49981V13.5748ZM62.3729 17.3098V6.80981H67.2929C68.5529 6.80981 69.5129 7.05981 70.1729 7.55981C70.8329 8.04981 71.1629 8.70981 71.1629 9.53981C71.1629 10.0998 71.0329 10.5798 70.7729 10.9798C70.5129 11.3698 70.1629 11.6748 69.7229 11.8948C69.2929 12.1048 68.8229 12.2098 68.3129 12.2098L68.5829 11.6698C69.1729 11.6698 69.7029 11.7798 70.1729 11.9998C70.6429 12.2098 71.0129 12.5198 71.2829 12.9298C71.5629 13.3398 71.7029 13.8498 71.7029 14.4598C71.7029 15.3598 71.3579 16.0598 70.6679 16.5598C69.9779 17.0598 68.9529 17.3098 67.5929 17.3098H62.3729ZM64.3229 15.7798H67.4729C68.2029 15.7798 68.7629 15.6598 69.1529 15.4198C69.5429 15.1798 69.7379 14.7948 69.7379 14.2648C69.7379 13.7448 69.5429 13.3648 69.1529 13.1248C68.7629 12.8748 68.2029 12.7498 67.4729 12.7498H64.1729V11.2348H67.0829C67.7629 11.2348 68.2829 11.1148 68.6429 10.8748C69.0129 10.6348 69.1979 10.2748 69.1979 9.79481C69.1979 9.30481 69.0129 8.93981 68.6429 8.69981C68.2829 8.45981 67.7629 8.33981 67.0829 8.33981H64.3229V15.7798ZM78.539 17.3098V15.6898L78.434 15.3448V12.5098C78.434 11.9598 78.269 11.5348 77.939 11.2348C77.609 10.9248 77.109 10.7698 76.439 10.7698C75.989 10.7698 75.544 10.8398 75.104 10.9798C74.674 11.1198 74.309 11.3148 74.009 11.5648L73.274 10.1998C73.704 9.86981 74.214 9.62481 74.804 9.46481C75.404 9.29481 76.024 9.20981 76.664 9.20981C77.824 9.20981 78.719 9.48981 79.349 10.0498C79.989 10.5998 80.309 11.4548 80.309 12.6148V17.3098H78.539ZM76.019 17.4148C75.419 17.4148 74.894 17.3148 74.444 17.1148C73.994 16.9048 73.644 16.6198 73.394 16.2598C73.154 15.8898 73.034 15.4748 73.034 15.0148C73.034 14.5648 73.139 14.1598 73.349 13.7998C73.569 13.4398 73.924 13.1548 74.414 12.9448C74.904 12.7348 75.554 12.6298 76.364 12.6298H78.689V13.8748H76.499C75.859 13.8748 75.429 13.9798 75.209 14.1898C74.989 14.3898 74.879 14.6398 74.879 14.9398C74.879 15.2798 75.014 15.5498 75.284 15.7498C75.554 15.9498 75.929 16.0498 76.409 16.0498C76.869 16.0498 77.279 15.9448 77.639 15.7348C78.009 15.5248 78.274 15.2148 78.434 14.8048L78.749 15.9298C78.569 16.3998 78.244 16.7648 77.774 17.0248C77.314 17.2848 76.729 17.4148 76.019 17.4148ZM84.2454 15.5248L84.2904 13.1698L88.4754 9.29981H90.7254L87.1704 12.8698L86.1804 13.6948L84.2454 15.5248ZM82.7154 17.3098V6.17981H84.5904V17.3098H82.7154ZM88.7604 17.3098L85.8354 13.6948L87.0204 12.1948L91.0404 17.3098H88.7604ZM95.6796 17.4148C94.7896 17.4148 94.0096 17.2398 93.3396 16.8898C92.6796 16.5298 92.1646 16.0398 91.7946 15.4198C91.4346 14.7998 91.2546 14.0948 91.2546 13.3048C91.2546 12.5048 91.4296 11.7998 91.7796 11.1898C92.1396 10.5698 92.6296 10.0848 93.2496 9.73481C93.8796 9.38481 94.5946 9.20981 95.3946 9.20981C96.1746 9.20981 96.8696 9.37981 97.4796 9.71981C98.0896 10.0598 98.5696 10.5398 98.9196 11.1598C99.2696 11.7798 99.4446 12.5098 99.4446 13.3498C99.4446 13.4298 99.4396 13.5198 99.4296 13.6198C99.4296 13.7198 99.4246 13.8148 99.4146 13.9048H92.7396V12.6598H98.4246L97.6896 13.0498C97.6996 12.5898 97.6046 12.1848 97.4046 11.8348C97.2046 11.4848 96.9296 11.2098 96.5796 11.0098C96.2396 10.8098 95.8446 10.7098 95.3946 10.7098C94.9346 10.7098 94.5296 10.8098 94.1796 11.0098C93.8396 11.2098 93.5696 11.4898 93.3696 11.8498C93.1796 12.1998 93.0846 12.6148 93.0846 13.0948V13.3948C93.0846 13.8748 93.1946 14.2998 93.4146 14.6698C93.6346 15.0398 93.9446 15.3248 94.3446 15.5248C94.7446 15.7248 95.2046 15.8248 95.7246 15.8248C96.1746 15.8248 96.5796 15.7548 96.9396 15.6148C97.2996 15.4748 97.6196 15.2548 97.8996 14.9548L98.9046 16.1098C98.5446 16.5298 98.0896 16.8548 97.5396 17.0848C96.9996 17.3048 96.3796 17.4148 95.6796 17.4148ZM101.246 17.3098V9.29981H103.031V11.5048L102.821 10.8598C103.061 10.3198 103.436 9.90981 103.946 9.62981C104.466 9.34981 105.111 9.20981 105.881 9.20981V10.9948C105.801 10.9748 105.726 10.9648 105.656 10.9648C105.586 10.9548 105.516 10.9498 105.446 10.9498C104.736 10.9498 104.171 11.1598 103.751 11.5798C103.331 11.9898 103.121 12.6048 103.121 13.4248V17.3098H101.246ZM108.424 20.3248C108.034 20.3248 107.644 20.2598 107.254 20.1298C106.864 19.9998 106.539 19.8198 106.279 19.5898L107.029 18.2098C107.219 18.3798 107.434 18.5148 107.674 18.6148C107.914 18.7148 108.159 18.7648 108.409 18.7648C108.749 18.7648 109.024 18.6798 109.234 18.5098C109.444 18.3398 109.639 18.0548 109.819 17.6548L110.284 16.6048L110.434 16.3798L113.464 9.29981H115.264L111.514 17.9548C111.264 18.5548 110.984 19.0298 110.674 19.3798C110.374 19.7298 110.034 19.9748 109.654 20.1148C109.284 20.2548 108.874 20.3248 108.424 20.3248ZM110.074 17.5948L106.459 9.29981H108.409L111.349 16.2148L110.074 17.5948Z" fill="#2C2C2C"/>
</svg>
