<svg width="41" height="41" viewBox="0 0 24 25" fill="none" xmlns="http://www.w3.org/2000/svg">
<circle cx="12" cy="12.3098" r="12" fill="#0473AB"/>
<path fill-rule="evenodd" clip-rule="evenodd" d="M15.1017 14.6998L14.4684 16.8057C14.4684 16.8057 13.5362 16.3553 12.8008 16.2989C12.3079 16.2611 11.6652 16.3893 11.2104 16.4801C10.9474 16.5325 10.7473 16.5724 10.6754 16.5605C10.4302 16.5196 10.2632 16.4044 10.0869 16.2008C9.92983 16.0194 9.80897 15.7103 9.82531 15.6449C9.83229 15.617 9.86229 15.612 9.93109 15.6005C10.0635 15.5784 10.3395 15.5323 10.8716 15.2526C11.2481 15.0547 11.7872 14.6313 11.7872 14.6313C11.7872 14.6313 11.5855 14.7411 11.382 14.8398C10.8798 15.0934 10.3122 15.2363 9.71117 15.2363C7.66155 15.2363 6 13.5748 6 11.5251C6 9.47551 7.66155 7.81396 9.71117 7.81396C10.7069 7.81396 11.611 8.20608 12.2775 8.84431L12.2776 8.84385C12.2776 8.84385 12.2799 8.8462 12.2841 8.85065C12.4 8.96215 12.5086 9.08111 12.6093 9.20675C12.683 9.29081 12.757 9.37823 12.8171 9.45551C13.0556 9.76179 13.3474 9.91959 13.6346 10.021C14.3029 10.2569 15.4493 9.98826 15.4493 9.98826C15.4493 9.98826 14.8837 9.98935 14.5337 9.90652C14.2646 9.8428 13.8634 9.66129 13.8634 9.66129C14.4535 9.45544 14.8709 9.41086 15.4538 9.4502C15.5467 9.45317 15.6385 9.46096 15.7287 9.47333C15.7551 9.47591 15.7818 9.47862 15.809 9.48145L15.8084 9.4855C17.0525 9.69503 18.0002 10.7773 18.0002 12.081C18.0002 13.5347 16.8218 14.7131 15.3681 14.7131C15.2782 14.7131 15.1893 14.7086 15.1017 14.6998Z" fill="white"/>
</svg>
